<svg xmlns="http://www.w3.org/2000/svg" viewBox="0 0 64 64" role="img">
  <rect width="64" height="64" fill="#050505"/>
  <path fill="#9A7D3B" d="M10 30l3-10 6 6 5-10 5 8 3-12 3 12 5-8 5 10 6-6 3 10v3H10v-3z"/>
  <path fill="#C6A75E" d="M12 29l3-8 5 5 5-8 5 7 2-10 2 10 5-7 5 8 5-5 3 8v2H12v-2z"/>
  <circle cx="32" cy="10" r="2.2" fill="#F3E2A8"/>
  <rect x="31.1" y="4" width="1.8" height="5" rx="0.3" fill="#EED9A0"/>
  <rect x="29" y="5.5" width="6" height="1.6" rx="0.3" fill="#EED9A0"/>
  <circle cx="13" cy="20" r="1.8" fill="#EED9A0"/>
  <circle cx="51" cy="20" r="1.8" fill="#EED9A0"/>
  <rect x="9" y="32" width="46" height="6" rx="1" fill="#E0C57A"/>
  <rect x="9" y="32" width="46" height="1.5" fill="#F3E2A8"/>
  <circle cx="20" cy="35" r="1.3" fill="#FAF8F2"/>
  <circle cx="32" cy="35" r="1.5" fill="#FAF8F2"/>
  <circle cx="44" cy="35" r="1.3" fill="#FAF8F2"/>
  <text
    x="32"
    y="54"
    text-anchor="middle"
    font-family="Arial Black, Helvetica Neue, sans-serif"
    font-weight="900"
    font-size="16"
    letter-spacing="1"
    fill="#FAF8F2"
  >P</text>
</svg>
